<svg width="390" height="3081" viewBox="0 0 390 3081" fill="none" xmlns="http://www.w3.org/2000/svg">
<g clip-path="url(#clip0_4_1675)">
<rect width="390" height="3081" fill="#F4EDE5"/>
<path d="M400.796 5.04369C332.558 -61.4371 324.466 -108.272 356.957 -196.929C356.957 -196.929 433.953 -150.947 428.483 -89.8559C423.013 -28.7648 400.796 5.04369 400.796 5.04369Z" fill="#749551" fill-opacity="0.03"/>
<path d="M34.8178 543.088C70.1459 464.672 107.379 443.347 192.622 443.535C192.622 443.535 177.388 523.051 123.873 537.274C70.3585 551.496 34.8178 543.088 34.8178 543.088Z" fill="#749551" fill-opacity="0.03"/>
<path d="M37.8293 337.017C118.77 337.561 153.14 363.679 191.115 443.896C191.115 443.896 118.249 462.701 82.4958 418.317C46.743 373.932 37.8293 337.017 37.8293 337.017Z" fill="#749551" fill-opacity="0.03"/>
<path d="M507.533 516.192C383.581 589.928 311.924 583.41 195.01 501.161C195.01 501.161 292.419 406.586 379.609 438.522C466.8 470.457 507.533 516.192 507.533 516.192Z" fill="#749551" fill-opacity="0.03"/>
<path d="M305.188 796.366C194.526 717.766 172.436 648.83 197.427 502.114C197.427 502.114 315.608 546.368 322.029 641.726C328.45 737.084 305.188 796.366 305.188 796.366Z" fill="#749551" fill-opacity="0.03"/>
<path d="M289.89 533.516C391.11 465.89 451.796 468.219 553.973 532.38C553.973 532.38 476.047 616.399 401.146 593.332C326.244 570.266 289.89 533.516 289.89 533.516Z" fill="#749551" fill-opacity="0.03"/>
<path d="M115.782 653.683C62.5184 771.909 6.38306 804.062 -122.137 803.778C-122.137 803.778 -99.1691 683.892 -18.4856 662.449C62.1979 641.005 115.782 653.683 115.782 653.683Z" fill="#749551" fill-opacity="0.03"/>
<path d="M111.242 964.375C-10.7923 963.554 -62.6115 924.176 -119.866 803.234C-119.866 803.234 -10.0057 774.881 43.8985 841.8C97.8026 908.718 111.242 964.375 111.242 964.375Z" fill="#749551" fill-opacity="0.03"/>
<path d="M472.654 631.97C365.771 624.022 324.93 589.512 288.819 489.612C288.819 489.612 388.426 473.56 427.889 530.164C467.352 586.768 472.654 631.97 472.654 631.97Z" fill="#749551" fill-opacity="0.03"/>
<path d="M230.06 716.273C196.2 621.259 212.136 569.879 289.884 491.222C289.884 491.222 342.962 568.534 306.225 629.317C269.489 690.101 230.06 716.273 230.06 716.273Z" fill="#749551" fill-opacity="0.03"/>
<path d="M543.307 780.154C432.467 771.911 390.113 736.123 352.664 632.523C352.664 632.523 455.96 615.877 496.885 674.577C537.809 733.278 543.307 780.154 543.307 780.154Z" fill="#749551" fill-opacity="0.03"/>
<path d="M482.183 1106.06C346.901 1039.34 311.8 972.769 317.348 823.369C317.348 823.369 455.79 854.938 477.443 949.607C499.097 1044.28 482.183 1106.06 482.183 1106.06Z" fill="#749551" fill-opacity="0.03"/>
<path d="M121.171 1088.17C127.079 946.327 174.962 887.683 317.888 826.031C317.888 826.031 346.39 954.901 266.405 1014.85C186.421 1074.8 121.171 1088.17 121.171 1088.17Z" fill="#749551" fill-opacity="0.03"/>
<path d="M548.573 943.876C560.509 1087.61 523.239 1149.16 398.062 1218.18C398.062 1218.18 355.76 1089.17 422.685 1024.8C489.61 960.438 548.573 943.876 548.573 943.876Z" fill="#749551" fill-opacity="0.03"/>
<path d="M402.186 925.865C517.606 955.184 555.638 1000.83 575.877 1117.11C575.877 1117.11 463.787 1115.45 431.526 1045.9C399.266 976.35 402.186 925.865 402.186 925.865Z" fill="#749551" fill-opacity="0.03"/>
<path d="M431.557 1134.82C364.835 1270.1 298.269 1305.2 148.869 1299.65C148.869 1299.65 180.438 1161.21 275.107 1139.56C369.777 1117.9 431.557 1134.82 431.557 1134.82Z" fill="#749551" fill-opacity="0.03"/>
<path d="M413.665 1495.83C271.827 1489.92 213.183 1442.04 151.531 1299.11C151.531 1299.11 280.401 1270.61 340.351 1350.59C400.301 1430.58 413.665 1495.83 413.665 1495.83Z" fill="#749551" fill-opacity="0.03"/>
<path d="M286.12 1247.03C422.581 1165.85 501.469 1173.03 630.181 1263.57C630.181 1263.57 522.943 1367.69 426.953 1332.54C330.964 1297.38 286.12 1247.03 286.12 1247.03Z" fill="#749551" fill-opacity="0.03"/>
<path d="M236.031 1487.07C108.42 1557.07 36.3797 1547.98 -78.6377 1460.91C-78.6377 1460.91 22.9355 1368.95 109.748 1404.23C196.559 1439.51 236.031 1487.07 236.031 1487.07Z" fill="#749551" fill-opacity="0.03"/>
<path d="M22.0859 1762.52C-86.7547 1679.35 -106.606 1609.04 -76.2339 1461.95C-76.2339 1461.95 41.4005 1510.75 44.5178 1607.15C47.6352 1703.55 22.0859 1762.52 22.0859 1762.52Z" fill="#749551" fill-opacity="0.03"/>
<path d="M399.203 1629.72C358.221 1551.38 365.786 1504.84 423.677 1427.08C423.677 1427.08 479.18 1487.71 454.708 1544.95C430.235 1602.2 399.203 1629.72 399.203 1629.72Z" fill="#749551" fill-opacity="0.03"/>
<path d="M590.975 1490.53C572.728 1631.31 519.915 1685.56 372.16 1734.52C372.16 1734.52 354.999 1603.66 439.904 1550.91C524.809 1498.15 590.975 1490.53 590.975 1490.53Z" fill="#749551" fill-opacity="0.03"/>
<path d="M291.731 1742.55C170.641 1720.65 128.147 1676.34 98.9031 1557.94C98.9031 1557.94 214.566 1551.56 252.834 1620.93C291.102 1690.3 291.731 1742.55 291.731 1742.55Z" fill="#749551" fill-opacity="0.03"/>
<path d="M272.607 1809.7C245.345 1697.14 269.708 1640.39 367.926 1559.9C367.926 1559.9 419.255 1654.55 370.012 1719.55C320.77 1784.55 272.607 1809.7 272.607 1809.7Z" fill="#749551" fill-opacity="0.03"/>
<path d="M309.975 1900.98C356.675 1750.61 419.573 1703.55 574.512 1684.87C574.512 1684.87 564.571 1832.76 470.502 1870.54C376.433 1908.33 309.975 1900.98 309.975 1900.98Z" fill="#749551" fill-opacity="0.03"/>
<path d="M269.47 1525.85C416.671 1508.78 484.953 1548.57 571.856 1685.86C571.856 1685.86 443.644 1736.29 368.774 1663.62C293.904 1590.94 269.47 1525.85 269.47 1525.85Z" fill="#749551" fill-opacity="0.03"/>
<path d="M364.369 1702.42C424.693 1613.83 475.001 1595.72 579.572 1614.39C579.572 1614.39 543.67 1708.68 474.918 1714.56C406.166 1720.43 364.369 1702.42 364.369 1702.42Z" fill="#749551" fill-opacity="0.03"/>
<path d="M146.487 2160.35C165.853 2063.02 202.177 2029.38 298.062 2007.47C298.062 2007.47 301.574 2100.82 245.101 2130.7C188.627 2160.58 146.487 2160.35 146.487 2160.35Z" fill="#749551" fill-opacity="0.03"/>
<path d="M96.3858 1927.89C187.527 1907.49 232.947 1927.93 296.462 2008.26C296.462 2008.26 219.421 2048.32 167.705 2007.7C115.989 1967.08 96.3858 1927.89 96.3858 1927.89Z" fill="#749551" fill-opacity="0.03"/>
<path d="M373.733 2035.61C429.045 1968.23 474.197 1957.17 567.069 1979.75C567.069 1979.75 533.424 2053.48 472.047 2053.32C410.67 2053.17 373.733 2035.61 373.733 2035.61Z" fill="#749551" fill-opacity="0.03"/>
<path d="M291.801 2236.69C187.709 2227.12 148.47 2192.77 114.956 2094.74C114.956 2094.74 212.362 2080.78 249.881 2136.65C287.4 2192.52 291.801 2236.69 291.801 2236.69Z" fill="#749551" fill-opacity="0.03"/>
<path d="M53.7986 2314.77C22.3963 2221.54 38.811 2171.7 115.967 2096.32C115.967 2096.32 166.41 2172.62 129.552 2231.27C92.6935 2289.92 53.7986 2314.77 53.7986 2314.77Z" fill="#749551" fill-opacity="0.03"/>
<path d="M382.776 2419.39C431.882 2299.37 486.861 2265.28 615.313 2261.08C615.313 2261.08 596.542 2381.69 516.656 2405.94C436.77 2430.19 382.776 2419.39 382.776 2419.39Z" fill="#749551" fill-opacity="0.03"/>
<path d="M376.471 2108.73C498.459 2105.29 551.621 2142.83 613.062 2261.7C613.062 2261.7 504.258 2293.87 448.051 2228.88C391.844 2163.88 376.471 2108.73 376.471 2108.73Z" fill="#749551" fill-opacity="0.03"/>
<path d="M348.357 2425.22C443.933 2356.42 502.683 2356.62 603.635 2415.2C603.635 2415.2 531.132 2499.06 457.938 2479.29C384.744 2459.52 348.357 2425.22 348.357 2425.22Z" fill="#749551" fill-opacity="0.03"/>
<path d="M149.512 2558.53C220.842 2436.23 285.466 2407.72 424.989 2422.7C424.989 2422.7 386.366 2550.25 296.308 2564.33C206.25 2578.41 149.512 2558.53 149.512 2558.53Z" fill="#749551" fill-opacity="0.03"/>
<path d="M189.901 2221.68C322.319 2236.5 374.093 2285.17 422.46 2423.03C422.46 2423.03 299.932 2441.28 249.037 2362.46C198.142 2283.65 189.901 2221.68 189.901 2221.68Z" fill="#749551" fill-opacity="0.03"/>
<path d="M537.823 2711.89C523.892 2863.42 473.892 2920.54 331.185 2969.32C331.185 2969.32 310.868 2827.53 392.197 2772.91C473.526 2718.3 537.823 2711.89 537.823 2711.89Z" fill="#749551" fill-opacity="0.03"/>
<path d="M651.483 3058.35C515.768 3104.06 443.229 3080.17 333.497 2967.85C333.497 2967.85 444.56 2894.42 529.934 2948.08C615.308 3001.73 651.483 3058.35 651.483 3058.35Z" fill="#749551" fill-opacity="0.03"/>
<path d="M348.619 2490.04C412.799 2409.03 466.1 2394.97 576.67 2419.83C576.67 2419.83 538.308 2507.93 465.54 2509.01C392.772 2510.09 348.619 2490.04 348.619 2490.04Z" fill="#749551" fill-opacity="0.03"/>
</g>
<defs>
<clipPath id="clip0_4_1675">
<rect width="390" height="3081" fill="white"/>
</clipPath>
</defs>
</svg>
