<svg width="1728" height="3081" viewBox="0 0 1728 3081" fill="none" xmlns="http://www.w3.org/2000/svg">
<g clip-path="url(#clip0_4_1516)">
<rect width="1728" height="3081" fill="#F4EDE5"/>
<path d="M1470.8 5.04368C1402.56 -61.4371 1394.47 -108.272 1426.96 -196.929C1426.96 -196.929 1503.95 -150.947 1498.48 -89.8559C1493.01 -28.7648 1470.8 5.04368 1470.8 5.04368Z" fill="#749551" fill-opacity="0.03"/>
<path d="M34.8178 543.088C70.1459 464.672 107.379 443.347 192.622 443.535C192.622 443.535 177.388 523.051 123.873 537.274C70.3585 551.496 34.8178 543.088 34.8178 543.088Z" fill="#749551" fill-opacity="0.03"/>
<path d="M37.8298 337.017C118.771 337.561 153.141 363.679 191.116 443.896C191.116 443.896 118.249 462.701 82.4963 418.317C46.7435 373.932 37.8298 337.017 37.8298 337.017Z" fill="#749551" fill-opacity="0.03"/>
<path d="M1042.53 516.192C918.581 589.928 846.924 583.41 730.01 501.161C730.01 501.161 827.419 406.586 914.609 438.522C1001.8 470.457 1042.53 516.192 1042.53 516.192Z" fill="#749551" fill-opacity="0.03"/>
<path d="M840.188 796.366C729.526 717.766 707.436 648.83 732.427 502.114C732.427 502.114 850.608 546.368 857.029 641.726C863.45 737.084 840.188 796.366 840.188 796.366Z" fill="#749551" fill-opacity="0.03"/>
<path d="M1359.89 533.516C1461.11 465.89 1521.8 468.219 1623.97 532.38C1623.97 532.38 1546.05 616.399 1471.15 593.332C1396.24 570.266 1359.89 533.516 1359.89 533.516Z" fill="#749551" fill-opacity="0.03"/>
<path d="M1518.07 288.425C1614.81 349.787 1636.48 406.916 1621.89 531.684C1621.89 531.684 1520.33 499.603 1510.7 419.512C1501.08 339.421 1518.07 288.425 1518.07 288.425Z" fill="#749551" fill-opacity="0.03"/>
<path d="M115.782 653.683C62.5184 771.909 6.38306 804.062 -122.137 803.778C-122.137 803.778 -99.1691 683.892 -18.4856 662.449C62.1979 641.005 115.782 653.683 115.782 653.683Z" fill="#749551" fill-opacity="0.03"/>
<path d="M111.242 964.375C-10.7923 963.554 -62.6115 924.176 -119.866 803.234C-119.866 803.234 -10.0057 774.881 43.8985 841.8C97.8026 908.718 111.242 964.375 111.242 964.375Z" fill="#749551" fill-opacity="0.03"/>
<path d="M740.654 631.97C633.771 624.022 592.93 589.512 556.819 489.612C556.819 489.612 656.426 473.56 695.889 530.164C735.352 586.768 740.654 631.97 740.654 631.97Z" fill="#749551" fill-opacity="0.03"/>
<path d="M498.06 716.273C464.2 621.259 480.136 569.879 557.884 491.222C557.884 491.222 610.962 568.534 574.225 629.317C537.489 690.101 498.06 716.273 498.06 716.273Z" fill="#749551" fill-opacity="0.03"/>
<path d="M1613.31 780.154C1502.47 771.911 1460.11 736.123 1422.66 632.523C1422.66 632.523 1525.96 615.877 1566.88 674.577C1607.81 733.278 1613.31 780.154 1613.31 780.154Z" fill="#749551" fill-opacity="0.03"/>
<path d="M1361.73 867.579C1326.61 769.046 1343.14 715.764 1423.77 634.193C1423.77 634.193 1478.81 714.368 1440.71 777.403C1402.62 840.438 1361.73 867.579 1361.73 867.579Z" fill="#749551" fill-opacity="0.03"/>
<path d="M482.183 1106.06C346.901 1039.34 311.8 972.769 317.348 823.369C317.348 823.369 455.79 854.938 477.443 949.607C499.097 1044.28 482.183 1106.06 482.183 1106.06Z" fill="#749551" fill-opacity="0.03"/>
<path d="M121.171 1088.17C127.079 946.327 174.962 887.683 317.889 826.031C317.889 826.031 346.39 954.901 266.406 1014.85C186.421 1074.8 121.171 1088.17 121.171 1088.17Z" fill="#749551" fill-opacity="0.03"/>
<path d="M1083.57 943.876C1095.51 1087.61 1058.24 1149.16 933.062 1218.18C933.062 1218.18 890.76 1089.17 957.685 1024.8C1024.61 960.438 1083.57 943.876 1083.57 943.876Z" fill="#749551" fill-opacity="0.03"/>
<path d="M1246.69 1248.56C1127.53 1313.57 1055.89 1303.2 934.978 1216.43C934.978 1216.43 1026.56 1129.61 1115.08 1165.64C1203.6 1201.67 1246.69 1248.56 1246.69 1248.56Z" fill="#749551" fill-opacity="0.03"/>
<path d="M1472.19 925.865C1587.61 955.184 1625.64 1000.83 1645.88 1117.11C1645.88 1117.11 1533.79 1115.45 1501.53 1045.9C1469.27 976.35 1472.19 925.865 1472.19 925.865Z" fill="#749551" fill-opacity="0.03"/>
<path d="M1753.9 880.425C1772.62 990.925 1745.27 1044.07 1645.02 1115.14C1645.02 1115.14 1601.86 1020.3 1653.79 960.879C1705.71 901.456 1753.9 880.425 1753.9 880.425Z" fill="#749551" fill-opacity="0.03"/>
<path d="M431.557 1134.82C364.835 1270.1 298.269 1305.2 148.869 1299.65C148.869 1299.65 180.438 1161.21 275.107 1139.56C369.777 1117.9 431.557 1134.82 431.557 1134.82Z" fill="#749551" fill-opacity="0.03"/>
<path d="M413.665 1495.83C271.827 1489.92 213.183 1442.04 151.531 1299.11C151.531 1299.11 280.401 1270.61 340.351 1350.59C400.301 1430.58 413.665 1495.83 413.665 1495.83Z" fill="#749551" fill-opacity="0.03"/>
<path d="M1089.12 1247.03C1225.58 1165.85 1304.47 1173.03 1433.18 1263.57C1433.18 1263.57 1325.94 1367.69 1229.95 1332.54C1133.96 1297.38 1089.12 1247.03 1089.12 1247.03Z" fill="#749551" fill-opacity="0.03"/>
<path d="M1311.88 938.579C1433.71 1025.11 1458.03 1101 1430.52 1262.53C1430.52 1262.53 1300.41 1213.81 1293.34 1108.82C1286.27 1003.84 1311.88 938.579 1311.88 938.579Z" fill="#749551" fill-opacity="0.03"/>
<path d="M1700.74 1356.61C1594.76 1273.05 1576.42 1208.26 1609.07 1078.54C1609.07 1078.54 1724.36 1131.92 1725.7 1218.8C1727.04 1305.68 1700.74 1356.61 1700.74 1356.61Z" fill="#749551" fill-opacity="0.03"/>
<path d="M1388.12 1273.79C1419.67 1150.75 1472.49 1108.34 1609.05 1080.97C1609.05 1080.97 1610.02 1199.06 1528.86 1236.64C1447.71 1274.23 1388.12 1273.79 1388.12 1273.79Z" fill="#749551" fill-opacity="0.03"/>
<path d="M236.031 1487.07C108.42 1557.07 36.3797 1547.98 -78.6377 1460.91C-78.6377 1460.91 22.9355 1368.95 109.748 1404.23C196.559 1439.51 236.031 1487.07 236.031 1487.07Z" fill="#749551" fill-opacity="0.03"/>
<path d="M22.0854 1762.52C-86.7552 1679.35 -106.607 1609.04 -76.2344 1461.95C-76.2344 1461.95 41.4 1510.75 44.5174 1607.15C47.6348 1703.55 22.0854 1762.52 22.0854 1762.52Z" fill="#749551" fill-opacity="0.03"/>
<path d="M867.493 1526.95C773.749 1533.09 734.088 1508.12 690.556 1425.81C690.556 1425.81 775.058 1399.73 816.218 1444.05C857.377 1488.36 867.493 1526.95 867.493 1526.95Z" fill="#749551" fill-opacity="0.03"/>
<path d="M667.203 1629.72C626.221 1551.38 633.786 1504.84 691.677 1427.08C691.677 1427.08 747.18 1487.71 722.708 1544.95C698.235 1602.2 667.203 1629.72 667.203 1629.72Z" fill="#749551" fill-opacity="0.03"/>
<path d="M1302.9 1441.24C1431.85 1519.5 1461.01 1588.87 1442.47 1737.22C1442.47 1737.22 1307.3 1693.7 1293.98 1597.51C1280.66 1501.31 1302.9 1441.24 1302.9 1441.24Z" fill="#749551" fill-opacity="0.03"/>
<path d="M1660.98 1490.53C1642.73 1631.31 1589.92 1685.56 1442.16 1734.52C1442.16 1734.52 1425 1603.66 1509.9 1550.91C1594.81 1498.15 1660.98 1490.53 1660.98 1490.53Z" fill="#749551" fill-opacity="0.03"/>
<path d="M559.731 1742.55C438.641 1720.65 396.147 1676.34 366.903 1557.94C366.903 1557.94 482.566 1551.56 520.834 1620.93C559.102 1690.3 559.731 1742.55 559.731 1742.55Z" fill="#749551" fill-opacity="0.03"/>
<path d="M272.606 1809.7C245.345 1697.14 269.708 1640.39 367.926 1559.9C367.926 1559.9 419.254 1654.55 370.012 1719.55C320.769 1784.55 272.606 1809.7 272.606 1809.7Z" fill="#749551" fill-opacity="0.03"/>
<path d="M844.975 1900.98C891.675 1750.61 954.573 1703.55 1109.51 1684.87C1109.51 1684.87 1099.57 1832.76 1005.5 1870.54C911.433 1908.33 844.975 1900.98 844.975 1900.98Z" fill="#749551" fill-opacity="0.03"/>
<path d="M804.47 1525.85C951.671 1508.78 1019.95 1548.57 1106.86 1685.86C1106.86 1685.86 978.644 1736.29 903.774 1663.62C828.904 1590.94 804.47 1525.85 804.47 1525.85Z" fill="#749551" fill-opacity="0.03"/>
<path d="M1167.37 1702.42C1227.69 1613.83 1278 1595.72 1382.57 1614.39C1382.57 1614.39 1346.67 1708.68 1277.92 1714.56C1209.17 1720.43 1167.37 1702.42 1167.37 1702.42Z" fill="#749551" fill-opacity="0.03"/>
<path d="M1215.66 1450.18C1314.87 1468.36 1351.4 1507.85 1380.65 1614.51C1380.65 1614.51 1287.15 1621.82 1252.88 1559.62C1218.61 1497.41 1215.66 1450.18 1215.66 1450.18Z" fill="#749551" fill-opacity="0.03"/>
<path d="M146.487 2160.35C165.853 2063.02 202.177 2029.38 298.062 2007.47C298.062 2007.47 301.574 2100.82 245.101 2130.7C188.627 2160.58 146.487 2160.35 146.487 2160.35Z" fill="#749551" fill-opacity="0.03"/>
<path d="M96.3855 1927.89C187.527 1907.49 232.947 1927.93 296.462 2008.26C296.462 2008.26 219.421 2048.32 167.705 2007.7C115.989 1967.08 96.3855 1927.89 96.3855 1927.89Z" fill="#749551" fill-opacity="0.03"/>
<path d="M1079.16 2177.79C1037.47 2095.08 1044.86 2049.46 1102.79 1978.25C1102.79 1978.25 1159.01 2044.89 1134.65 2099.32C1110.28 2153.74 1079.16 2177.79 1079.16 2177.79Z" fill="#749551" fill-opacity="0.03"/>
<path d="M908.733 2035.61C964.045 1968.23 1009.2 1957.17 1102.07 1979.75C1102.07 1979.75 1068.42 2053.48 1007.05 2053.32C945.67 2053.17 908.733 2035.61 908.733 2035.61Z" fill="#749551" fill-opacity="0.03"/>
<path d="M1642.61 2192.6C1540.53 2308.99 1465.21 2326.11 1318.58 2280.92C1318.58 2280.92 1386.65 2152.06 1486.25 2155.74C1585.86 2159.42 1642.61 2192.6 1642.61 2192.6Z" fill="#749551" fill-opacity="0.03"/>
<path d="M1528.98 2545.74C1389.93 2502.2 1344.52 2439.16 1321.36 2281.09C1321.36 2281.09 1456.69 2287.07 1494.87 2382.29C1533.06 2477.5 1528.98 2545.74 1528.98 2545.74Z" fill="#749551" fill-opacity="0.03"/>
<path d="M291.801 2236.69C187.709 2227.12 148.47 2192.77 114.956 2094.74C114.956 2094.74 212.362 2080.78 249.881 2136.65C287.4 2192.52 291.801 2236.69 291.801 2236.69Z" fill="#749551" fill-opacity="0.03"/>
<path d="M53.7986 2314.77C22.3963 2221.54 38.811 2171.7 115.967 2096.32C115.967 2096.32 166.41 2172.62 129.552 2231.27C92.6935 2289.92 53.7986 2314.77 53.7986 2314.77Z" fill="#749551" fill-opacity="0.03"/>
<path d="M650.776 2419.39C699.882 2299.37 754.861 2265.28 883.313 2261.08C883.313 2261.08 864.542 2381.69 784.656 2405.94C704.77 2430.19 650.776 2419.39 650.776 2419.39Z" fill="#749551" fill-opacity="0.03"/>
<path d="M644.471 2108.73C766.46 2105.29 819.622 2142.83 881.062 2261.7C881.062 2261.7 772.258 2293.87 716.051 2228.88C659.845 2163.88 644.471 2108.73 644.471 2108.73Z" fill="#749551" fill-opacity="0.03"/>
<path d="M1418.36 2425.22C1513.93 2356.42 1572.68 2356.62 1673.63 2415.2C1673.63 2415.2 1601.13 2499.06 1527.94 2479.29C1454.74 2459.52 1418.36 2425.22 1418.36 2425.22Z" fill="#749551" fill-opacity="0.03"/>
<path d="M1563.01 2182.92C1658.61 2238.98 1681.49 2293.48 1671.6 2414.6C1671.6 2414.6 1572.32 2387.01 1560.31 2309.9C1548.3 2232.8 1563.01 2182.92 1563.01 2182.92Z" fill="#749551" fill-opacity="0.03"/>
<path d="M149.512 2558.53C220.842 2436.23 285.466 2407.72 424.989 2422.7C424.989 2422.7 386.366 2550.25 296.308 2564.33C206.25 2578.41 149.512 2558.53 149.512 2558.53Z" fill="#749551" fill-opacity="0.03"/>
<path d="M189.901 2221.68C322.319 2236.5 374.093 2285.17 422.46 2423.03C422.46 2423.03 299.932 2441.28 249.037 2362.46C198.142 2283.65 189.901 2221.68 189.901 2221.68Z" fill="#749551" fill-opacity="0.03"/>
<path d="M805.823 2711.89C791.892 2863.42 741.892 2920.54 599.185 2969.32C599.185 2969.32 578.868 2827.53 660.197 2772.91C741.526 2718.3 805.823 2711.89 805.823 2711.89Z" fill="#749551" fill-opacity="0.03"/>
<path d="M919.483 3058.35C783.769 3104.06 711.229 3080.17 601.498 2967.85C601.498 2967.85 712.56 2894.42 797.934 2948.08C883.309 3001.73 919.483 3058.35 919.483 3058.35Z" fill="#749551" fill-opacity="0.03"/>
<path d="M1623.61 2655.08C1572.48 2557.88 1580.29 2503.65 1647.49 2418.03C1647.49 2418.03 1715.53 2495.87 1687.77 2560.9C1660.01 2625.92 1623.61 2655.08 1623.61 2655.08Z" fill="#749551" fill-opacity="0.03"/>
<path d="M1418.62 2490.04C1482.8 2409.03 1536.1 2394.97 1646.67 2419.83C1646.67 2419.83 1608.31 2507.93 1535.54 2509.01C1462.77 2510.09 1418.62 2490.04 1418.62 2490.04Z" fill="#749551" fill-opacity="0.03"/>
</g>
<defs>
<clipPath id="clip0_4_1516">
<rect width="1728" height="3081" fill="white"/>
</clipPath>
</defs>
</svg>
